<svg id="visual" viewBox="0 0 900 600" width="900" height="600" xmlns="http://www.w3.org/2000/svg" xmlns:xlink="http://www.w3.org/1999/xlink" version="1.1"><path d="M0 91L64 91L64 79L129 79L129 73L193 73L193 49L257 49L257 91L321 91L321 55L386 55L386 49L450 49L450 67L514 67L514 55L579 55L579 73L643 73L643 49L707 49L707 85L771 85L771 67L836 67L836 91L900 91L900 91L900 0L900 0L836 0L836 0L771 0L771 0L707 0L707 0L643 0L643 0L579 0L579 0L514 0L514 0L450 0L450 0L386 0L386 0L321 0L321 0L257 0L257 0L193 0L193 0L129 0L129 0L64 0L64 0L0 0Z" fill="#ffffff"></path><path d="M0 151L64 151L64 169L129 169L129 187L193 187L193 157L257 157L257 193L321 193L321 127L386 127L386 133L450 133L450 163L514 163L514 175L579 175L579 145L643 145L643 157L707 157L707 169L771 169L771 175L836 175L836 151L900 151L900 181L900 89L900 89L836 89L836 65L771 65L771 83L707 83L707 47L643 47L643 71L579 71L579 53L514 53L514 65L450 65L450 47L386 47L386 53L321 53L321 89L257 89L257 47L193 47L193 71L129 71L129 77L64 77L64 89L0 89Z" fill="#d0d0d0"></path><path d="M0 211L64 211L64 229L129 229L129 229L193 229L193 217L257 217L257 247L321 247L321 187L386 187L386 205L450 205L450 235L514 235L514 235L579 235L579 199L643 199L643 199L707 199L707 217L771 217L771 241L836 241L836 223L900 223L900 259L900 179L900 149L836 149L836 173L771 173L771 167L707 167L707 155L643 155L643 143L579 143L579 173L514 173L514 161L450 161L450 131L386 131L386 125L321 125L321 191L257 191L257 155L193 155L193 185L129 185L129 167L64 167L64 149L0 149Z" fill="#a2a2a2"></path><path d="M0 379L64 379L64 343L129 343L129 391L193 391L193 403L257 403L257 379L321 379L321 313L386 313L386 325L450 325L450 397L514 397L514 385L579 385L579 337L643 337L643 307L707 307L707 343L771 343L771 379L836 379L836 349L900 349L900 379L900 257L900 221L836 221L836 239L771 239L771 215L707 215L707 197L643 197L643 197L579 197L579 233L514 233L514 233L450 233L450 203L386 203L386 185L321 185L321 245L257 245L257 215L193 215L193 227L129 227L129 227L64 227L64 209L0 209Z" fill="#777777"></path><path d="M0 421L64 421L64 391L129 391L129 451L193 451L193 445L257 445L257 433L321 433L321 373L386 373L386 367L450 367L450 451L514 451L514 433L579 433L579 397L643 397L643 361L707 361L707 409L771 409L771 415L836 415L836 391L900 391L900 415L900 377L900 347L836 347L836 377L771 377L771 341L707 341L707 305L643 305L643 335L579 335L579 383L514 383L514 395L450 395L450 323L386 323L386 311L321 311L321 377L257 377L257 401L193 401L193 389L129 389L129 341L64 341L64 377L0 377Z" fill="#4e4e4e"></path><path d="M0 565L64 565L64 547L129 547L129 553L193 553L193 559L257 559L257 553L321 553L321 553L386 553L386 565L450 565L450 559L514 559L514 565L579 565L579 553L643 553L643 559L707 559L707 571L771 571L771 553L836 553L836 565L900 565L900 571L900 413L900 389L836 389L836 413L771 413L771 407L707 407L707 359L643 359L643 395L579 395L579 431L514 431L514 449L450 449L450 365L386 365L386 371L321 371L321 431L257 431L257 443L193 443L193 449L129 449L129 389L64 389L64 419L0 419Z" fill="#292929"></path><path d="M0 601L64 601L64 601L129 601L129 601L193 601L193 601L257 601L257 601L321 601L321 601L386 601L386 601L450 601L450 601L514 601L514 601L579 601L579 601L643 601L643 601L707 601L707 601L771 601L771 601L836 601L836 601L900 601L900 601L900 569L900 563L836 563L836 551L771 551L771 569L707 569L707 557L643 557L643 551L579 551L579 563L514 563L514 557L450 557L450 563L386 563L386 551L321 551L321 551L257 551L257 557L193 557L193 551L129 551L129 545L64 545L64 563L0 563Z" fill="#000000"></path></svg>