<svg id="visual" viewBox="0 0 900 600" width="900" height="600" xmlns="http://www.w3.org/2000/svg" xmlns:xlink="http://www.w3.org/1999/xlink" version="1.1"><path d="M0 152L25 157.7C50 163.3 100 174.7 150 184.8C200 195 250 204 300 202.5C350 201 400 189 450 161.2C500 133.3 550 89.7 600 80.3C650 71 700 96 750 100.5C800 105 850 89 875 81L900 73L900 0L875 0C850 0 800 0 750 0C700 0 650 0 600 0C550 0 500 0 450 0C400 0 350 0 300 0C250 0 200 0 150 0C100 0 50 0 25 0L0 0Z" fill="#fff" stroke-linecap="round" stroke-linejoin="miter"></path></svg>