<svg id="visual" viewBox="0 0 900 600" width="900" height="600" xmlns="http://www.w3.org/2000/svg" xmlns:xlink="http://www.w3.org/1999/xlink" version="1.1"><path d="M0 244L30 241.3C60 238.7 120 233.3 180 232.7C240 232 300 236 360 234C420 232 480 224 540 219.8C600 215.7 660 215.3 720 221.3C780 227.3 840 239.7 870 245.8L900 252L900 0L870 0C840 0 780 0 720 0C660 0 600 0 540 0C480 0 420 0 360 0C300 0 240 0 180 0C120 0 60 0 30 0L0 0Z" fill="#000000"></path><path d="M0 195L30 187.3C60 179.7 120 164.3 180 163.5C240 162.7 300 176.3 360 183.8C420 191.3 480 192.7 540 190C600 187.3 660 180.7 720 176.8C780 173 840 172 870 171.5L900 171L900 0L870 0C840 0 780 0 720 0C660 0 600 0 540 0C480 0 420 0 360 0C300 0 240 0 180 0C120 0 60 0 30 0L0 0Z" fill="#777777"></path><path d="M0 95L30 98.3C60 101.7 120 108.3 180 109.7C240 111 300 107 360 107.7C420 108.3 480 113.7 540 110.5C600 107.3 660 95.7 720 96.2C780 96.7 840 109.3 870 115.7L900 122L900 0L870 0C840 0 780 0 720 0C660 0 600 0 540 0C480 0 420 0 360 0C300 0 240 0 180 0C120 0 60 0 30 0L0 0Z" fill="#ffffff"></path></svg>